<?xml version="1.0" standalone="no"?>
<!DOCTYPE svg PUBLIC "-//W3C//DTD SVG 20010904//EN"
 "http://www.w3.org/TR/2001/REC-SVG-20010904/DTD/svg10.dtd">
<svg version="1.0" xmlns="http://www.w3.org/2000/svg"
 width="1030.000000pt" height="1030.000000pt" viewBox="0 0 1030.000000 1030.000000"
 preserveAspectRatio="xMidYMid meet">
<metadata>
Created by potrace 1.14, written by Peter Selinger 2001-2017
</metadata>
<g transform="translate(0.000000,1030.000000) scale(0.100000,-0.100000)"
fill="#000000" stroke="none">
<path d="M4878 10295 c-2 -1 -52 -6 -113 -9 -60 -4 -119 -9 -130 -11 -11 -2
-51 -7 -89 -10 -38 -4 -94 -11 -125 -16 -31 -5 -72 -12 -91 -14 -51 -6 -296
-54 -365 -72 -33 -8 -67 -16 -75 -18 -8 -2 -42 -11 -75 -20 -33 -9 -82 -22
-110 -30 -100 -27 -333 -109 -490 -172 -403 -162 -865 -426 -1205 -690 -49
-38 -200 -162 -229 -188 -19 -16 -59 -52 -90 -80 -92 -83 -302 -294 -381 -385
-41 -47 -77 -87 -80 -90 -20 -19 -149 -181 -207 -260 -255 -345 -460 -703
-612 -1066 -34 -82 -66 -158 -71 -169 -53 -123 -196 -596 -216 -714 -3 -14
-13 -69 -24 -121 -28 -138 -53 -294 -65 -410 -4 -30 -8 -68 -10 -85 -26 -188
-26 -876 0 -1025 2 -14 7 -52 10 -85 6 -59 39 -292 50 -350 18 -89 58 -269 81
-354 14 -53 27 -103 29 -111 4 -15 41 -137 68 -220 16 -51 83 -232 99 -270 6
-14 14 -34 19 -45 52 -134 197 -435 284 -590 164 -292 428 -657 666 -920 117
-130 364 -370 473 -460 27 -22 60 -50 75 -63 14 -12 51 -42 81 -65 30 -23 57
-44 60 -47 3 -4 46 -35 95 -70 50 -36 92 -68 95 -71 3 -3 16 -12 29 -19 14 -7
30 -17 35 -22 19 -16 117 -78 241 -153 340 -205 755 -388 1146 -506 118 -35
299 -84 354 -95 11 -2 43 -8 70 -14 28 -5 61 -12 75 -15 40 -8 143 -27 170
-30 14 -2 54 -8 90 -14 36 -5 90 -13 120 -16 30 -3 71 -7 90 -10 178 -20 697
-28 890 -12 194 15 442 47 570 72 59 12 76 15 101 20 201 37 558 142 794 233
66 25 123 45 128 44 4 -1 7 2 7 8 0 5 7 10 15 10 33 0 409 184 600 295 252
145 588 385 784 560 19 16 59 52 90 80 80 71 304 297 381 384 36 41 70 79 75
85 6 6 40 47 76 91 289 353 547 775 728 1195 35 80 67 154 72 165 17 37 90
249 126 360 51 163 117 424 138 547 3 18 8 40 10 48 2 8 7 33 10 55 3 23 7 50
9 62 5 25 15 95 20 138 2 17 7 50 10 75 23 174 31 325 31 610 0 273 -6 388
-30 605 -11 101 -45 313 -65 410 -12 55 -23 109 -26 120 -51 246 -177 637
-280 870 -10 22 -18 45 -20 51 -4 22 -166 346 -230 460 -86 155 -198 329 -307
483 -50 69 -93 128 -96 131 -4 3 -22 25 -41 50 -35 46 -168 205 -230 275 -86
98 -346 350 -464 450 -176 151 -489 384 -591 441 -11 6 -56 33 -100 60 -576
356 -1330 621 -1984 699 -30 4 -61 8 -70 10 -9 1 -54 6 -101 10 -47 4 -98 9
-115 12 -35 5 -662 13 -667 8z"/>
</g>
</svg>
